<svg fill="none" xmlns="http://www.w3.org/2000/svg" viewBox="38.59 43.86 273.92 158.39" width="273.92" height="158.39"> <rect width="350" height="250" fill="none"/> <g filter="url(#filter0_d_1_2)"> <path d="M139.692 91.3452C139.692 76.5826 142.807 64.9772 149.036 56.5292C155.351 48.0812 165.036 43.8572 178.092 43.8572C191.063 43.8572 200.705 48.1239 207.02 56.6572C213.335 65.1052 216.492 76.6679 216.492 91.3452C216.492 106.108 213.335 117.756 207.02 126.289C200.705 134.737 191.063 138.961 178.092 138.961C165.036 138.961 155.351 134.737 149.036 126.289C142.807 117.756 139.692 106.108 139.692 91.3452ZM188.46 91.3452C188.46 84.5186 187.777 79.3986 186.412 75.9852C185.047 72.4866 182.273 70.7372 178.092 70.7372C173.825 70.7372 171.009 72.4866 169.644 75.9852C168.279 79.3986 167.596 84.5186 167.596 91.3452C167.596 98.2572 168.279 103.463 169.644 106.961C171.009 110.375 173.825 112.081 178.092 112.081C182.273 112.081 185.047 110.375 186.412 106.961C187.777 103.463 188.46 98.2572 188.46 91.3452Z" fill="#FF3F3F"/> </g> <g filter="url(#filter1_d_1_2)"> <path d="M38.5935 124.92V101.24L76.7375 46.84H107.33V100.344H116.546V124.92H107.33V139H78.6575V124.92H38.5935ZM80.9615 79.224L67.1375 100.344H80.9615V79.224Z" fill="#FF3F3F"/> </g> <g filter="url(#filter2_d_1_2)"> <path d="M234.565 125.393V101.713L272.709 47.3132H303.301V100.817H312.517V125.393H303.301V139.473H274.629V125.393H234.565ZM276.933 79.6972L263.109 100.817H276.933V79.6972Z" fill="#FF3F3F"/> </g> <g filter="url(#filter3_d_1_2)"> <path d="M81.0399 202H73.0479L64.5879 189.184V202H56.5959V176.512H64.5879L73.0479 189.544V176.512H81.0399V202ZM100.311 202.252C97.9105 202.252 95.7025 201.688 93.6865 200.56C91.6945 199.432 90.1105 197.872 88.9345 195.88C87.7585 193.888 87.1705 191.644 87.1705 189.148C87.1705 186.652 87.7585 184.408 88.9345 182.416C90.1105 180.424 91.6945 178.876 93.6865 177.772C95.7025 176.644 97.9105 176.08 100.311 176.08C102.711 176.08 104.907 176.644 106.899 177.772C108.891 178.876 110.463 180.424 111.615 182.416C112.791 184.408 113.379 186.652 113.379 189.148C113.379 191.644 112.791 193.888 111.615 195.88C110.463 197.872 108.879 199.432 106.863 200.56C104.871 201.688 102.687 202.252 100.311 202.252ZM100.311 194.8C101.895 194.8 103.119 194.296 103.983 193.288C104.847 192.256 105.279 190.876 105.279 189.148C105.279 187.396 104.847 186.016 103.983 185.008C103.119 183.976 101.895 183.46 100.311 183.46C98.7025 183.46 97.4665 183.976 96.6025 185.008C95.7385 186.016 95.3065 187.396 95.3065 189.148C95.3065 190.876 95.7385 192.256 96.6025 193.288C97.4665 194.296 98.7025 194.8 100.311 194.8ZM139.518 176.512V182.848H132.75V202H124.758V182.848H118.062V176.512H139.518ZM172.282 176.512V182.848H162.274V186.376H169.474V192.388H162.274V202H154.282V176.512H172.282ZM190.649 202.252C188.249 202.252 186.041 201.688 184.025 200.56C182.033 199.432 180.449 197.872 179.273 195.88C178.097 193.888 177.509 191.644 177.509 189.148C177.509 186.652 178.097 184.408 179.273 182.416C180.449 180.424 182.033 178.876 184.025 177.772C186.041 176.644 188.249 176.08 190.649 176.08C193.049 176.08 195.245 176.644 197.237 177.772C199.229 178.876 200.801 180.424 201.953 182.416C203.129 184.408 203.717 186.652 203.717 189.148C203.717 191.644 203.129 193.888 201.953 195.88C200.801 197.872 199.217 199.432 197.201 200.56C195.209 201.688 193.025 202.252 190.649 202.252ZM190.649 194.8C192.233 194.8 193.457 194.296 194.321 193.288C195.185 192.256 195.617 190.876 195.617 189.148C195.617 187.396 195.185 186.016 194.321 185.008C193.457 183.976 192.233 183.46 190.649 183.46C189.041 183.46 187.805 183.976 186.941 185.008C186.077 186.016 185.645 187.396 185.645 189.148C185.645 190.876 186.077 192.256 186.941 193.288C187.805 194.296 189.041 194.8 190.649 194.8ZM217.653 176.512V190.876C217.653 192.052 217.905 192.988 218.409 193.684C218.937 194.356 219.777 194.692 220.929 194.692C222.081 194.692 222.933 194.356 223.485 193.684C224.037 192.988 224.313 192.052 224.313 190.876V176.512H232.269V190.876C232.269 193.3 231.765 195.376 230.757 197.104C229.749 198.808 228.369 200.092 226.617 200.956C224.865 201.82 222.909 202.252 220.749 202.252C218.589 202.252 216.669 201.82 214.989 200.956C213.333 200.092 212.037 198.808 211.101 197.104C210.165 195.4 209.697 193.324 209.697 190.876V176.512H217.653ZM263.4 202H255.408L246.948 189.184V202H238.956V176.512H246.948L255.408 189.544V176.512H263.4V202ZM280.87 176.512C283.534 176.512 285.862 177.052 287.854 178.132C289.87 179.212 291.418 180.712 292.498 182.632C293.578 184.552 294.118 186.736 294.118 189.184C294.118 191.608 293.578 193.792 292.498 195.736C291.418 197.68 289.87 199.216 287.854 200.344C285.862 201.448 283.534 202 280.87 202H270.25V176.512H280.87ZM280.15 194.872C281.95 194.872 283.378 194.38 284.434 193.396C285.49 192.412 286.018 191.008 286.018 189.184C286.018 187.36 285.49 185.956 284.434 184.972C283.378 183.988 281.95 183.496 280.15 183.496H278.242V194.872H280.15Z" fill="#FF3F3F"/> </g> <defs> <filter id="filter0_d_1_2" x="135.692" y="43.8572" width="84.8" height="103.104" filterUnits="userSpaceOnUse" color-interpolation-filters="sRGB"> <feFlood flood-opacity="0" result="BackgroundImageFix"/> <feColorMatrix in="SourceAlpha" type="matrix" values="0 0 0 0 0 0 0 0 0 0 0 0 0 0 0 0 0 0 127 0" result="hardAlpha"/> <feOffset dy="4"/> <feGaussianBlur stdDeviation="2"/> <feComposite in2="hardAlpha" operator="out"/> <feColorMatrix type="matrix" values="0 0 0 0 0 0 0 0 0 0 0 0 0 0 0 0 0 0 0.25 0"/> <feBlend mode="normal" in2="BackgroundImageFix" result="effect1_dropShadow_1_2"/> <feBlend mode="normal" in="SourceGraphic" in2="effect1_dropShadow_1_2" result="shape"/> </filter> <filter id="filter1_d_1_2" x="34.5935" y="46.84" width="85.952" height="100.16" filterUnits="userSpaceOnUse" color-interpolation-filters="sRGB"> <feFlood flood-opacity="0" result="BackgroundImageFix"/> <feColorMatrix in="SourceAlpha" type="matrix" values="0 0 0 0 0 0 0 0 0 0 0 0 0 0 0 0 0 0 127 0" result="hardAlpha"/> <feOffset dy="4"/> <feGaussianBlur stdDeviation="2"/> <feComposite in2="hardAlpha" operator="out"/> <feColorMatrix type="matrix" values="0 0 0 0 0 0 0 0 0 0 0 0 0 0 0 0 0 0 0.25 0"/> <feBlend mode="normal" in2="BackgroundImageFix" result="effect1_dropShadow_1_2"/> <feBlend mode="normal" in="SourceGraphic" in2="effect1_dropShadow_1_2" result="shape"/> </filter> <filter id="filter2_d_1_2" x="230.565" y="47.3132" width="85.952" height="100.16" filterUnits="userSpaceOnUse" color-interpolation-filters="sRGB"> <feFlood flood-opacity="0" result="BackgroundImageFix"/> <feColorMatrix in="SourceAlpha" type="matrix" values="0 0 0 0 0 0 0 0 0 0 0 0 0 0 0 0 0 0 127 0" result="hardAlpha"/> <feOffset dy="4"/> <feGaussianBlur stdDeviation="2"/> <feComposite in2="hardAlpha" operator="out"/> <feColorMatrix type="matrix" values="0 0 0 0 0 0 0 0 0 0 0 0 0 0 0 0 0 0 0.25 0"/> <feBlend mode="normal" in2="BackgroundImageFix" result="effect1_dropShadow_1_2"/> <feBlend mode="normal" in="SourceGraphic" in2="effect1_dropShadow_1_2" result="shape"/> </filter> <filter id="filter3_d_1_2" x="52.5959" y="176.08" width="245.522" height="34.172" filterUnits="userSpaceOnUse" color-interpolation-filters="sRGB"> <feFlood flood-opacity="0" result="BackgroundImageFix"/> <feColorMatrix in="SourceAlpha" type="matrix" values="0 0 0 0 0 0 0 0 0 0 0 0 0 0 0 0 0 0 127 0" result="hardAlpha"/> <feOffset dy="4"/> <feGaussianBlur stdDeviation="2"/> <feComposite in2="hardAlpha" operator="out"/> <feColorMatrix type="matrix" values="0 0 0 0 0 0 0 0 0 0 0 0 0 0 0 0 0 0 0.25 0"/> <feBlend mode="normal" in2="BackgroundImageFix" result="effect1_dropShadow_1_2"/> <feBlend mode="normal" in="SourceGraphic" in2="effect1_dropShadow_1_2" result="shape"/> </filter> </defs> </svg>