<svg width="512" height="512" viewBox="0 0 512 512" fill="none" xmlns="http://www.w3.org/2000/svg">
<path d="M467.682 107.851C485.252 90.2808 485.252 61.7473 467.682 44.1774C450.112 26.6075 421.579 26.6075 404.009 44.1774L256 192.327L107.851 44.318C90.2808 26.7481 61.7473 26.7481 44.1774 44.318C26.6075 61.8879 26.6075 90.4214 44.1774 107.991L192.327 256L44.318 404.149C26.7481 421.719 26.7481 450.253 44.318 467.823C61.8879 485.392 90.4214 485.392 107.991 467.823L256 319.673L404.149 467.682C421.719 485.252 450.253 485.252 467.823 467.682C485.392 450.112 485.392 421.579 467.823 404.009L319.673 256L467.682 107.851Z" fill="white"/>
</svg>
