<svg width="512" height="512" viewBox="0 0 512 512" fill="none" xmlns="http://www.w3.org/2000/svg">
<path d="M0 96C0 78.3 16.3429 64 36.5714 64H475.429C495.657 64 512 78.3 512 96C512 113.7 495.657 128 475.429 128H36.5714C16.3429 128 0 113.7 0 96ZM0 256C0 238.3 16.3429 224 36.5714 224H475.429C495.657 224 512 238.3 512 256C512 273.7 495.657 288 475.429 288H36.5714C16.3429 288 0 273.7 0 256ZM512 416C512 433.7 495.657 448 475.429 448H36.5714C16.3429 448 0 433.7 0 416C0 398.3 16.3429 384 36.5714 384H475.429C495.657 384 512 398.3 512 416Z" fill="white"/>
</svg>
