<svg xmlns="http://www.w3.org/2000/svg" fill="none" viewBox="1.92 23.92 386.43 81.34">
<path d="M25.28 70.448C21.0133 70.448 17.088 69.4453 13.504 67.44C9.96267 65.4347 7.14667 62.6613 5.056 59.12C2.96533 55.5787 1.92 51.5893 1.92 47.152C1.92 42.7147 2.96533 38.7253 5.056 35.184C7.14667 31.6427 9.96267 28.8907 13.504 26.928C17.088 24.9227 21.0133 23.92 25.28 23.92C29.5467 23.92 33.4507 24.9227 36.992 26.928C40.5333 28.8907 43.328 31.6427 45.376 35.184C47.4667 38.7253 48.512 42.7147 48.512 47.152C48.512 51.5893 47.4667 55.5787 45.376 59.12C43.328 62.6613 40.512 65.4347 36.928 67.44C33.3867 69.4453 29.504 70.448 25.28 70.448ZM25.28 57.2C28.096 57.2 30.272 56.304 31.808 54.512C33.344 52.6773 34.112 50.224 34.112 47.152C34.112 44.0373 33.344 41.584 31.808 39.792C30.272 37.9573 28.096 37.04 25.28 37.04C22.4213 37.04 20.224 37.9573 18.688 39.792C17.152 41.584 16.384 44.0373 16.384 47.152C16.384 50.224 17.152 52.6773 18.688 54.512C20.224 56.304 22.4213 57.2 25.28 57.2ZM108.102 24.688V70H93.9575V47.408L86.9815 70H74.8215L67.8455 47.408V70H53.6375V24.688H71.0455L81.0295 51.888L90.7575 24.688H108.102ZM128.721 36.016V41.584H142.801V52.272H128.721V58.672H144.721V70H114.513V24.688H144.721V36.016H128.721ZM177.851 40.176C177.296 39.28 176.507 38.5973 175.483 38.128C174.459 37.616 173.222 37.36 171.771 37.36C169.04 37.36 166.928 38.256 165.435 40.048C163.942 41.7973 163.195 44.208 163.195 47.28C163.195 50.8213 164.027 53.4667 165.691 55.216C167.355 56.9653 169.915 57.84 173.371 57.84C176.656 57.84 179.302 56.5173 181.307 53.872H169.979V43.824H193.083V58.032C191.12 61.4027 188.411 64.304 184.955 66.736C181.499 69.1253 177.126 70.32 171.835 70.32C167.142 70.32 163.046 69.36 159.547 67.44C156.091 65.4773 153.424 62.7467 151.547 59.248C149.712 55.7493 148.795 51.76 148.795 47.28C148.795 42.8 149.712 38.8107 151.547 35.312C153.424 31.8133 156.091 29.104 159.547 27.184C163.003 25.2213 167.056 24.24 171.707 24.24C177.638 24.24 182.459 25.6693 186.171 28.528C189.926 31.3867 192.144 35.2693 192.827 40.176H177.851ZM227.256 63.152H212.152L209.912 70H195L211.576 24.688H227.96L244.472 70H229.496L227.256 63.152ZM223.8 52.464L219.704 39.856L215.608 52.464H223.8ZM288.911 46.768C291.642 47.408 293.754 48.7307 295.247 50.736C296.783 52.6987 297.551 54.9813 297.551 57.584C297.551 61.552 296.228 64.624 293.583 66.8C290.98 68.9333 287.226 70 282.319 70H258.575V24.688H281.679C286.287 24.688 289.914 25.6907 292.559 27.696C295.204 29.7013 296.527 32.624 296.527 36.464C296.527 39.1093 295.823 41.3493 294.415 43.184C293.05 44.976 291.215 46.1707 288.911 46.768ZM272.783 42.352H278.287C279.567 42.352 280.506 42.096 281.103 41.584C281.743 41.072 282.063 40.2827 282.063 39.216C282.063 38.1067 281.743 37.296 281.103 36.784C280.506 36.2293 279.567 35.952 278.287 35.952H272.783V42.352ZM279.247 58.608C280.527 58.608 281.466 58.3733 282.063 57.904C282.703 57.392 283.023 56.5813 283.023 55.472C283.023 53.296 281.764 52.208 279.247 52.208H272.783V58.608H279.247ZM324.405 70.448C320.138 70.448 316.213 69.4453 312.629 67.44C309.088 65.4347 306.272 62.6613 304.181 59.12C302.09 55.5787 301.045 51.5893 301.045 47.152C301.045 42.7147 302.09 38.7253 304.181 35.184C306.272 31.6427 309.088 28.8907 312.629 26.928C316.213 24.9227 320.138 23.92 324.405 23.92C328.672 23.92 332.576 24.9227 336.117 26.928C339.658 28.8907 342.453 31.6427 344.501 35.184C346.592 38.7253 347.637 42.7147 347.637 47.152C347.637 51.5893 346.592 55.5787 344.501 59.12C342.453 62.6613 339.637 65.4347 336.053 67.44C332.512 69.4453 328.629 70.448 324.405 70.448ZM324.405 57.2C327.221 57.2 329.397 56.304 330.933 54.512C332.469 52.6773 333.237 50.224 333.237 47.152C333.237 44.0373 332.469 41.584 330.933 39.792C329.397 37.9573 327.221 37.04 324.405 37.04C321.546 37.04 319.349 37.9573 317.813 39.792C316.277 41.584 315.509 44.0373 315.509 47.152C315.509 50.224 316.277 52.6773 317.813 54.512C319.349 56.304 321.546 57.2 324.405 57.2ZM388.347 24.688V35.952H376.315V70H362.107V35.952H350.203V24.688H388.347Z" fill="#FF3F3F"/>
<path d="M46.8523 90.5881V87.5455H61.1875V90.5881H55.8438V105H52.196V90.5881H46.8523ZM67.1108 97.4318V105H63.4801V87.5455H67.0085V94.2188H67.1619C67.4574 93.446 67.9347 92.8409 68.5938 92.4034C69.2528 91.9602 70.0795 91.7386 71.0739 91.7386C71.983 91.7386 72.7756 91.9375 73.4517 92.3352C74.1335 92.7273 74.6619 93.2926 75.0369 94.0312C75.4176 94.7642 75.6051 95.642 75.5994 96.6648V105H71.9688V97.3125C71.9744 96.5057 71.7699 95.8778 71.3551 95.429C70.946 94.9801 70.3722 94.7557 69.6335 94.7557C69.1392 94.7557 68.7017 94.8608 68.321 95.071C67.946 95.2812 67.6506 95.5881 67.4347 95.9915C67.2244 96.3892 67.1165 96.8693 67.1108 97.4318ZM84.4226 105.256C83.076 105.256 81.9169 104.983 80.9453 104.438C79.9794 103.886 79.2351 103.108 78.7124 102.102C78.1896 101.091 77.9283 99.8949 77.9283 98.5142C77.9283 97.1676 78.1896 95.9858 78.7124 94.9688C79.2351 93.9517 79.9709 93.1591 80.9197 92.5909C81.8743 92.0227 82.9936 91.7386 84.2777 91.7386C85.1413 91.7386 85.9453 91.8778 86.6896 92.1562C87.4396 92.429 88.093 92.8409 88.6499 93.392C89.2124 93.9432 89.6499 94.6364 89.9624 95.4716C90.2749 96.3011 90.4311 97.2727 90.4311 98.3864V99.3835H79.3771V97.1335H87.0135C87.0135 96.6108 86.8999 96.1477 86.6726 95.7443C86.4453 95.3409 86.13 95.0256 85.7266 94.7983C85.3288 94.5653 84.8658 94.4489 84.3374 94.4489C83.7862 94.4489 83.2976 94.5767 82.8714 94.8324C82.451 95.0824 82.1214 95.4205 81.8828 95.8466C81.6442 96.267 81.522 96.7358 81.5163 97.2528V99.392C81.5163 100.04 81.6357 100.599 81.8743 101.071C82.1186 101.543 82.4624 101.906 82.9055 102.162C83.3487 102.418 83.8743 102.545 84.4822 102.545C84.8857 102.545 85.255 102.489 85.5902 102.375C85.9254 102.261 86.2124 102.091 86.451 101.864C86.6896 101.636 86.8714 101.358 86.9964 101.028L90.3544 101.25C90.1839 102.057 89.8345 102.761 89.3061 103.364C88.7834 103.96 88.1072 104.426 87.2777 104.761C86.4538 105.091 85.5021 105.256 84.4226 105.256ZM102.088 105.247C101.253 105.247 100.509 105.102 99.8551 104.812C99.2017 104.517 98.6847 104.082 98.304 103.509C97.929 102.929 97.7415 102.207 97.7415 101.344C97.7415 100.616 97.875 100.006 98.142 99.5114C98.4091 99.017 98.7727 98.6193 99.233 98.3182C99.6932 98.017 100.216 97.7898 100.801 97.6364C101.392 97.483 102.011 97.375 102.659 97.3125C103.42 97.233 104.034 97.1591 104.5 97.0909C104.966 97.017 105.304 96.9091 105.514 96.767C105.724 96.625 105.83 96.4148 105.83 96.1364V96.0852C105.83 95.5455 105.659 95.1278 105.318 94.8324C104.983 94.5369 104.506 94.3892 103.886 94.3892C103.233 94.3892 102.713 94.5341 102.327 94.8239C101.94 95.108 101.685 95.4659 101.56 95.8977L98.2017 95.625C98.3722 94.8295 98.7074 94.142 99.2074 93.5625C99.7074 92.9773 100.352 92.5284 101.142 92.2159C101.938 91.8977 102.858 91.7386 103.903 91.7386C104.631 91.7386 105.327 91.8239 105.991 91.9943C106.662 92.1648 107.256 92.429 107.773 92.7869C108.295 93.1449 108.707 93.6051 109.009 94.1676C109.31 94.7244 109.46 95.392 109.46 96.1705V105H106.017V103.185H105.915C105.705 103.594 105.423 103.955 105.071 104.267C104.719 104.574 104.295 104.815 103.801 104.991C103.307 105.162 102.736 105.247 102.088 105.247ZM103.128 102.741C103.662 102.741 104.134 102.636 104.543 102.426C104.952 102.21 105.273 101.92 105.506 101.557C105.739 101.193 105.855 100.781 105.855 100.321V98.9318C105.741 99.0057 105.585 99.0739 105.386 99.1364C105.193 99.1932 104.974 99.2472 104.73 99.2983C104.486 99.3437 104.241 99.3864 103.997 99.4261C103.753 99.4602 103.531 99.4915 103.332 99.5199C102.906 99.5824 102.534 99.6818 102.216 99.8182C101.898 99.9545 101.651 100.139 101.474 100.372C101.298 100.599 101.21 100.884 101.21 101.224C101.21 101.719 101.389 102.097 101.747 102.358C102.111 102.614 102.571 102.741 103.128 102.741ZM115.908 87.5455V105H112.277V87.5455H115.908ZM122.447 87.5455V105H118.816V87.5455H122.447ZM130.91 105V91.9091H134.54V105H130.91ZM132.734 90.2216C132.194 90.2216 131.731 90.0426 131.344 89.6847C130.964 89.321 130.773 88.8864 130.773 88.3807C130.773 87.8807 130.964 87.4517 131.344 87.0938C131.731 86.7301 132.194 86.5483 132.734 86.5483C133.273 86.5483 133.734 86.7301 134.114 87.0938C134.501 87.4517 134.694 87.8807 134.694 88.3807C134.694 88.8864 134.501 89.321 134.114 89.6847C133.734 90.0426 133.273 90.2216 132.734 90.2216ZM141.08 97.4318V105H137.449V91.9091H140.909V94.2188H141.062C141.352 93.4574 141.838 92.8551 142.52 92.4119C143.202 91.9631 144.028 91.7386 145 91.7386C145.909 91.7386 146.702 91.9375 147.378 92.3352C148.054 92.733 148.58 93.3011 148.955 94.0398C149.33 94.7727 149.517 95.6477 149.517 96.6648V105H145.886V97.3125C145.892 96.5114 145.688 95.8864 145.273 95.4375C144.858 94.983 144.287 94.7557 143.56 94.7557C143.071 94.7557 142.639 94.8608 142.264 95.071C141.895 95.2812 141.605 95.5881 141.395 95.9915C141.19 96.3892 141.085 96.8693 141.08 97.4318ZM163.848 105.256C162.524 105.256 161.379 104.974 160.413 104.412C159.453 103.844 158.712 103.054 158.189 102.043C157.666 101.026 157.405 99.8466 157.405 98.5057C157.405 97.1534 157.666 95.9716 158.189 94.9602C158.712 93.9432 159.453 93.1534 160.413 92.5909C161.379 92.0227 162.524 91.7386 163.848 91.7386C165.172 91.7386 166.314 92.0227 167.274 92.5909C168.24 93.1534 168.984 93.9432 169.507 94.9602C170.03 95.9716 170.291 97.1534 170.291 98.5057C170.291 99.8466 170.03 101.026 169.507 102.043C168.984 103.054 168.24 103.844 167.274 104.412C166.314 104.974 165.172 105.256 163.848 105.256ZM163.865 102.443C164.467 102.443 164.97 102.273 165.374 101.932C165.777 101.585 166.081 101.114 166.286 100.517C166.496 99.9205 166.601 99.2415 166.601 98.4801C166.601 97.7188 166.496 97.0398 166.286 96.4432C166.081 95.8466 165.777 95.375 165.374 95.0284C164.97 94.6818 164.467 94.5085 163.865 94.5085C163.257 94.5085 162.746 94.6818 162.331 95.0284C161.922 95.375 161.612 95.8466 161.402 96.4432C161.197 97.0398 161.095 97.7188 161.095 98.4801C161.095 99.2415 161.197 99.9205 161.402 100.517C161.612 101.114 161.922 101.585 162.331 101.932C162.746 102.273 163.257 102.443 163.865 102.443ZM176.283 97.4318V105H172.652V91.9091H176.112V94.2188H176.266C176.555 93.4574 177.041 92.8551 177.723 92.4119C178.405 91.9631 179.232 91.7386 180.203 91.7386C181.112 91.7386 181.905 91.9375 182.581 92.3352C183.257 92.733 183.783 93.3011 184.158 94.0398C184.533 94.7727 184.72 95.6477 184.72 96.6648V105H181.089V97.3125C181.095 96.5114 180.891 95.8864 180.476 95.4375C180.061 94.983 179.49 94.7557 178.763 94.7557C178.274 94.7557 177.842 94.8608 177.467 95.071C177.098 95.2812 176.808 95.5881 176.598 95.9915C176.393 96.3892 176.288 96.8693 176.283 97.4318ZM193.548 105.256C192.201 105.256 191.042 104.983 190.07 104.438C189.104 103.886 188.36 103.108 187.837 102.102C187.315 101.091 187.053 99.8949 187.053 98.5142C187.053 97.1676 187.315 95.9858 187.837 94.9688C188.36 93.9517 189.096 93.1591 190.045 92.5909C190.999 92.0227 192.119 91.7386 193.403 91.7386C194.266 91.7386 195.07 91.8778 195.815 92.1562C196.565 92.429 197.218 92.8409 197.775 93.392C198.337 93.9432 198.775 94.6364 199.087 95.4716C199.4 96.3011 199.556 97.2727 199.556 98.3864V99.3835H188.502V97.1335H196.138C196.138 96.6108 196.025 96.1477 195.798 95.7443C195.57 95.3409 195.255 95.0256 194.852 94.7983C194.454 94.5653 193.991 94.4489 193.462 94.4489C192.911 94.4489 192.423 94.5767 191.996 94.8324C191.576 95.0824 191.246 95.4205 191.008 95.8466C190.769 96.267 190.647 96.7358 190.641 97.2528V99.392C190.641 100.04 190.761 100.599 190.999 101.071C191.244 101.543 191.587 101.906 192.031 102.162C192.474 102.418 192.999 102.545 193.607 102.545C194.011 102.545 194.38 102.489 194.715 102.375C195.05 102.261 195.337 102.091 195.576 101.864C195.815 101.636 195.996 101.358 196.121 101.028L199.479 101.25C199.309 102.057 198.96 102.761 198.431 103.364C197.908 103.96 197.232 104.426 196.403 104.761C195.579 105.091 194.627 105.256 193.548 105.256ZM213.736 105H207.548V87.5455H213.787C215.543 87.5455 217.054 87.8949 218.321 88.5938C219.588 89.2869 220.563 90.2841 221.244 91.5852C221.932 92.8864 222.276 94.4432 222.276 96.2557C222.276 98.0739 221.932 99.6364 221.244 100.943C220.563 102.25 219.582 103.253 218.304 103.952C217.031 104.651 215.509 105 213.736 105ZM211.239 101.838H213.582C214.673 101.838 215.591 101.645 216.335 101.259C217.085 100.866 217.648 100.261 218.023 99.4432C218.403 98.6193 218.594 97.5568 218.594 96.2557C218.594 94.9659 218.403 93.9119 218.023 93.0938C217.648 92.2756 217.088 91.6733 216.344 91.2869C215.599 90.9006 214.682 90.7074 213.591 90.7074H211.239V101.838ZM224.941 105V91.9091H228.572V105H224.941ZM226.765 90.2216C226.225 90.2216 225.762 90.0426 225.376 89.6847C224.995 89.321 224.805 88.8864 224.805 88.3807C224.805 87.8807 224.995 87.4517 225.376 87.0938C225.762 86.7301 226.225 86.5483 226.765 86.5483C227.305 86.5483 227.765 86.7301 228.146 87.0938C228.532 87.4517 228.725 87.8807 228.725 88.3807C228.725 88.8864 228.532 89.321 228.146 89.6847C227.765 90.0426 227.305 90.2216 226.765 90.2216ZM242.372 95.642L239.048 95.8466C238.991 95.5625 238.869 95.3068 238.682 95.0795C238.494 94.8466 238.247 94.6619 237.94 94.5256C237.639 94.3835 237.278 94.3125 236.858 94.3125C236.295 94.3125 235.821 94.4318 235.435 94.6705C235.048 94.9034 234.855 95.2159 234.855 95.608C234.855 95.9205 234.98 96.1847 235.23 96.4006C235.48 96.6165 235.909 96.7898 236.517 96.9205L238.886 97.3977C240.159 97.6591 241.108 98.0795 241.733 98.6591C242.358 99.2386 242.67 100 242.67 100.943C242.67 101.801 242.418 102.554 241.912 103.202C241.412 103.849 240.724 104.355 239.849 104.719C238.98 105.077 237.977 105.256 236.841 105.256C235.108 105.256 233.727 104.895 232.699 104.173C231.676 103.446 231.077 102.457 230.901 101.207L234.472 101.02C234.58 101.548 234.841 101.952 235.256 102.23C235.67 102.503 236.202 102.639 236.849 102.639C237.486 102.639 237.997 102.517 238.384 102.273C238.776 102.023 238.974 101.702 238.98 101.31C238.974 100.98 238.835 100.71 238.562 100.5C238.29 100.284 237.869 100.119 237.301 100.006L235.034 99.554C233.756 99.2983 232.804 98.8551 232.179 98.2244C231.56 97.5937 231.25 96.7898 231.25 95.8125C231.25 94.9716 231.477 94.2472 231.932 93.6392C232.392 93.0312 233.037 92.5625 233.866 92.233C234.702 91.9034 235.679 91.7386 236.798 91.7386C238.452 91.7386 239.753 92.0881 240.702 92.7869C241.656 93.4858 242.213 94.4375 242.372 95.642ZM250.871 105.256C249.531 105.256 248.377 104.972 247.411 104.403C246.451 103.83 245.712 103.034 245.195 102.017C244.684 101 244.428 99.8295 244.428 98.5057C244.428 97.1648 244.687 95.9886 245.204 94.9773C245.727 93.9602 246.468 93.1676 247.428 92.5994C248.388 92.0256 249.531 91.7386 250.854 91.7386C251.996 91.7386 252.996 91.946 253.854 92.3608C254.712 92.7756 255.391 93.358 255.891 94.108C256.391 94.858 256.667 95.7386 256.718 96.75H253.292C253.195 96.0966 252.94 95.571 252.525 95.1733C252.116 94.7699 251.579 94.5682 250.914 94.5682C250.352 94.5682 249.86 94.7216 249.44 95.0284C249.025 95.3295 248.701 95.7699 248.468 96.3494C248.235 96.929 248.119 97.6307 248.119 98.4545C248.119 99.2898 248.232 100 248.46 100.585C248.692 101.17 249.019 101.616 249.44 101.923C249.86 102.23 250.352 102.384 250.914 102.384C251.329 102.384 251.701 102.298 252.031 102.128C252.366 101.957 252.641 101.71 252.857 101.386C253.079 101.057 253.224 100.662 253.292 100.202H256.718C256.661 101.202 256.388 102.082 255.9 102.844C255.417 103.599 254.749 104.19 253.897 104.616C253.045 105.043 252.036 105.256 250.871 105.256ZM264.957 105.256C263.634 105.256 262.489 104.974 261.523 104.412C260.563 103.844 259.821 103.054 259.298 102.043C258.776 101.026 258.514 99.8466 258.514 98.5057C258.514 97.1534 258.776 95.9716 259.298 94.9602C259.821 93.9432 260.563 93.1534 261.523 92.5909C262.489 92.0227 263.634 91.7386 264.957 91.7386C266.281 91.7386 267.423 92.0227 268.384 92.5909C269.349 93.1534 270.094 93.9432 270.616 94.9602C271.139 95.9716 271.401 97.1534 271.401 98.5057C271.401 99.8466 271.139 101.026 270.616 102.043C270.094 103.054 269.349 103.844 268.384 104.412C267.423 104.974 266.281 105.256 264.957 105.256ZM264.974 102.443C265.577 102.443 266.08 102.273 266.483 101.932C266.886 101.585 267.19 101.114 267.395 100.517C267.605 99.9205 267.71 99.2415 267.71 98.4801C267.71 97.7188 267.605 97.0398 267.395 96.4432C267.19 95.8466 266.886 95.375 266.483 95.0284C266.08 94.6818 265.577 94.5085 264.974 94.5085C264.366 94.5085 263.855 94.6818 263.44 95.0284C263.031 95.375 262.722 95.8466 262.511 96.4432C262.307 97.0398 262.205 97.7188 262.205 98.4801C262.205 99.2415 262.307 99.9205 262.511 100.517C262.722 101.114 263.031 101.585 263.44 101.932C263.855 102.273 264.366 102.443 264.974 102.443ZM273.761 105V91.9091H277.281V94.1932H277.418C277.656 93.3807 278.057 92.767 278.619 92.3523C279.182 91.9318 279.83 91.7216 280.562 91.7216C280.744 91.7216 280.94 91.733 281.151 91.7557C281.361 91.7784 281.545 91.8097 281.705 91.8494V95.071C281.534 95.0199 281.298 94.9744 280.997 94.9347C280.696 94.8949 280.42 94.875 280.17 94.875C279.636 94.875 279.159 94.9915 278.739 95.2244C278.324 95.4517 277.994 95.7699 277.75 96.179C277.511 96.5881 277.392 97.0597 277.392 97.5938V105H273.761ZM287.796 105.213C286.802 105.213 285.901 104.957 285.094 104.446C284.293 103.929 283.657 103.17 283.185 102.17C282.719 101.165 282.487 99.9318 282.487 98.4716C282.487 96.9716 282.728 95.7244 283.211 94.7301C283.694 93.7301 284.336 92.983 285.137 92.4886C285.944 91.9886 286.827 91.7386 287.788 91.7386C288.521 91.7386 289.131 91.8636 289.62 92.1136C290.114 92.358 290.512 92.6648 290.813 93.0341C291.12 93.3977 291.353 93.7557 291.512 94.108H291.623V87.5455H295.245V105H291.665V102.903H291.512C291.342 103.267 291.1 103.628 290.788 103.986C290.481 104.338 290.08 104.631 289.586 104.864C289.097 105.097 288.501 105.213 287.796 105.213ZM288.947 102.324C289.532 102.324 290.026 102.165 290.43 101.847C290.839 101.523 291.151 101.071 291.367 100.491C291.589 99.9119 291.7 99.233 291.7 98.4545C291.7 97.6761 291.592 97 291.376 96.4261C291.16 95.8523 290.847 95.4091 290.438 95.0966C290.029 94.7841 289.532 94.6278 288.947 94.6278C288.35 94.6278 287.847 94.7898 287.438 95.1136C287.029 95.4375 286.719 95.8864 286.509 96.4602C286.299 97.0341 286.194 97.6989 286.194 98.4545C286.194 99.2159 286.299 99.8892 286.509 100.474C286.725 101.054 287.035 101.509 287.438 101.838C287.847 102.162 288.35 102.324 288.947 102.324ZM303.853 105V87.5455H310.842C312.126 87.5455 313.197 87.7358 314.055 88.1165C314.913 88.4972 315.558 89.0256 315.989 89.7017C316.421 90.3722 316.637 91.1449 316.637 92.0199C316.637 92.7017 316.501 93.3011 316.228 93.8182C315.955 94.3295 315.58 94.75 315.103 95.0795C314.631 95.4034 314.092 95.6335 313.484 95.7699V95.9403C314.148 95.9687 314.771 96.1562 315.35 96.5028C315.935 96.8494 316.41 97.3352 316.773 97.9602C317.137 98.5795 317.319 99.3182 317.319 100.176C317.319 101.102 317.089 101.929 316.629 102.656C316.174 103.378 315.501 103.949 314.609 104.369C313.717 104.79 312.617 105 311.31 105H303.853ZM307.543 101.983H310.552C311.58 101.983 312.33 101.787 312.802 101.395C313.273 100.997 313.509 100.469 313.509 99.8097C313.509 99.3267 313.393 98.9006 313.16 98.5312C312.927 98.1619 312.594 97.8722 312.163 97.6619C311.737 97.4517 311.228 97.3466 310.637 97.3466H307.543V101.983ZM307.543 94.8494H310.279C310.785 94.8494 311.234 94.7614 311.626 94.5852C312.023 94.4034 312.336 94.1477 312.563 93.8182C312.796 93.4886 312.913 93.0938 312.913 92.6335C312.913 92.0028 312.688 91.4943 312.239 91.108C311.796 90.7216 311.165 90.5284 310.347 90.5284H307.543V94.8494ZM325.567 105.256C324.243 105.256 323.098 104.974 322.132 104.412C321.172 103.844 320.43 103.054 319.908 102.043C319.385 101.026 319.124 99.8466 319.124 98.5057C319.124 97.1534 319.385 95.9716 319.908 94.9602C320.43 93.9432 321.172 93.1534 322.132 92.5909C323.098 92.0227 324.243 91.7386 325.567 91.7386C326.891 91.7386 328.033 92.0227 328.993 92.5909C329.959 93.1534 330.703 93.9432 331.226 94.9602C331.749 95.9716 332.01 97.1534 332.01 98.5057C332.01 99.8466 331.749 101.026 331.226 102.043C330.703 103.054 329.959 103.844 328.993 104.412C328.033 104.974 326.891 105.256 325.567 105.256ZM325.584 102.443C326.186 102.443 326.689 102.273 327.092 101.932C327.496 101.585 327.8 101.114 328.004 100.517C328.214 99.9205 328.32 99.2415 328.32 98.4801C328.32 97.7188 328.214 97.0398 328.004 96.4432C327.8 95.8466 327.496 95.375 327.092 95.0284C326.689 94.6818 326.186 94.5085 325.584 94.5085C324.976 94.5085 324.464 94.6818 324.05 95.0284C323.641 95.375 323.331 95.8466 323.121 96.4432C322.916 97.0398 322.814 97.7188 322.814 98.4801C322.814 99.2415 322.916 99.9205 323.121 100.517C323.331 101.114 323.641 101.585 324.05 101.932C324.464 102.273 324.976 102.443 325.584 102.443ZM341.334 91.9091V94.6364H333.45V91.9091H341.334ZM335.24 88.7727H338.871V100.977C338.871 101.312 338.922 101.574 339.024 101.761C339.126 101.943 339.268 102.071 339.45 102.145C339.638 102.219 339.854 102.256 340.098 102.256C340.268 102.256 340.439 102.241 340.609 102.213C340.78 102.179 340.911 102.153 341.001 102.136L341.572 104.838C341.391 104.895 341.135 104.96 340.805 105.034C340.476 105.114 340.075 105.162 339.604 105.179C338.729 105.213 337.962 105.097 337.303 104.83C336.649 104.562 336.141 104.148 335.777 103.585C335.413 103.023 335.234 102.312 335.24 101.455V88.7727Z" fill="#B6B6B6"/>
</svg>