<svg preserveAspectRatio="none" viewBox="0 0 950 660" fill="none" xmlns="http://www.w3.org/2000/svg">
<rect width="950" height="660" fill="#1E1E1E"/>
<g clip-path="url(#clip0_0_1)">
<path d="M950 0H0V660H950V0Z" fill="#1E1E1E"/>
<path d="M950 328C891.99 306.619 833.801 285.239 790.784 261.55C747.946 237.861 719.923 211.864 668.517 191.576C617.111 171.167 542.144 156.468 504.839 125.49C467.355 94.5126 467.712 47.2563 468.069 0H950V328Z" fill="#212121"/>
<path d="M950 218.667C911.267 204.453 872.534 190.119 843.975 174.326C815.238 158.533 796.675 141.283 762.404 127.677C728.133 114.193 677.977 104.353 653.166 83.7007C628.356 63.0489 628.534 31.4637 628.713 0H950V218.667Z" fill="#242424"/>
<path d="M950 109.333C930.723 102.166 911.267 95.12 896.988 87.2237C882.708 79.3274 873.248 70.5807 856.113 63.8993C838.977 57.0963 813.988 52.1156 801.672 41.7896C789.178 31.4637 789.178 15.7926 789.356 0H950V109.333Z" fill="#282828"/>
<path d="M0 419C71.7567 433.639 143.281 448.277 215.967 459.613C288.652 470.949 362.267 478.893 426.824 495.941C491.614 512.901 547.348 538.875 579.162 567.795C611.209 596.626 619.104 628.313 627 660H0V419Z" fill="#212121"/>
<path d="M0 499.333C47.8378 509.063 95.4433 518.881 143.978 526.379C192.28 533.966 241.511 539.232 284.704 550.568C327.666 561.904 365.053 579.31 386.186 598.5C407.318 617.78 412.659 638.846 418 660H0V499.333Z" fill="#242424"/>
<path d="M0 579.667C23.9189 584.576 47.8378 589.396 71.9889 593.234C96.14 596.983 120.756 599.661 142.352 605.284C163.949 610.997 182.527 619.655 192.977 629.295C203.659 638.846 206.446 649.467 209 660H0V579.667Z" fill="#282828"/>
</g>
<defs>
<clipPath id="clip0_0_1">
<rect width="950" height="660" fill="white"/>
</clipPath>
</defs>
</svg>
