<svg width="512" height="512" viewBox="0 0 512 512" fill="none" xmlns="http://www.w3.org/2000/svg">
<g clip-path="url(#clip0_1_7)">
<path d="M256 4C214.2 4 178.6 30.7 165.5 68H128C92.7 68 64 96.7 64 132V452C64 487.3 92.7 516 128 516H384C419.3 516 448 487.3 448 452V132C448 96.7 419.3 68 384 68H346.5C333.4 30.7 297.8 4 256 4ZM256 68C264.487 68 272.626 71.3714 278.627 77.3726C284.629 83.3737 288 91.5131 288 100C288 108.487 284.629 116.626 278.627 122.627C272.626 128.629 264.487 132 256 132C247.513 132 239.374 128.629 233.373 122.627C227.371 116.626 224 108.487 224 100C224 91.5131 227.371 83.3737 233.373 77.3726C239.374 71.3714 247.513 68 256 68ZM176 196H336C344.8 196 352 203.2 352 212C352 220.8 344.8 228 336 228H176C167.2 228 160 220.8 160 212C160 203.2 167.2 196 176 196Z" fill="#666666"/>
</g>
<defs>
<clipPath id="clip0_1_7">
<rect width="512" height="512" fill="#666666"/>
</clipPath>
</defs>
</svg>
